<mxfile host="app.diagrams.net" modified="2024-03-21T05:08:49.394Z" agent="Mozilla/5.0 (Windows NT 10.0; Win64; x64) AppleWebKit/537.36 (KHTML, like Gecko) Chrome/122.0.0.0 Safari/537.36 Edg/122.0.0.0" etag="ykdmoqcqUXsgUYWppoVl" version="24.0.1" type="google">
  <diagram name="Página-1" id="RFd3nQmtXvrP8L3LUhLY">
    <mxGraphModel grid="1" page="1" gridSize="10" guides="1" tooltips="1" connect="1" arrows="1" fold="1" pageScale="1" pageWidth="827" pageHeight="1169" math="0" shadow="0">
      <root>
        <mxCell id="0" />
        <mxCell id="1" parent="0" />
        <mxCell id="sHqzyULpG_yxHivqWB2C-1" value="Inicio" style="ellipse;whiteSpace=wrap;html=1;" vertex="1" parent="1">
          <mxGeometry x="-414" y="-3758" width="61" height="38" as="geometry" />
        </mxCell>
        <mxCell id="sHqzyULpG_yxHivqWB2C-2" value="Ingresar el dia de nacimiento (dia)" style="shape=parallelogram;perimeter=parallelogramPerimeter;whiteSpace=wrap;html=1;fixedSize=1;" vertex="1" parent="1">
          <mxGeometry x="-452.25" y="-3704" width="137.5" height="68" as="geometry" />
        </mxCell>
        <mxCell id="sHqzyULpG_yxHivqWB2C-3" value="Ingresar el mes de nacimiento (mes)" style="shape=parallelogram;perimeter=parallelogramPerimeter;whiteSpace=wrap;html=1;fixedSize=1;" vertex="1" parent="1">
          <mxGeometry x="-452.25" y="-3624" width="137.5" height="68" as="geometry" />
        </mxCell>
        <mxCell id="sHqzyULpG_yxHivqWB2C-4" style="edgeStyle=orthogonalEdgeStyle;rounded=0;orthogonalLoop=1;jettySize=auto;html=1;exitX=0;exitY=0.5;exitDx=0;exitDy=0;" edge="1" parent="1" source="sHqzyULpG_yxHivqWB2C-16">
          <mxGeometry relative="1" as="geometry">
            <mxPoint x="-1273.764813591452" y="-3471.3529160443477" as="targetPoint" />
          </mxGeometry>
        </mxCell>
        <mxCell id="sHqzyULpG_yxHivqWB2C-5" style="edgeStyle=orthogonalEdgeStyle;rounded=0;orthogonalLoop=1;jettySize=auto;html=1;exitX=0;exitY=0.5;exitDx=0;exitDy=0;" edge="1" parent="1" source="sHqzyULpG_yxHivqWB2C-16">
          <mxGeometry relative="1" as="geometry">
            <mxPoint x="-969.7648207720586" y="-3466.6470336914062" as="targetPoint" />
          </mxGeometry>
        </mxCell>
        <mxCell id="sHqzyULpG_yxHivqWB2C-6" style="edgeStyle=orthogonalEdgeStyle;rounded=0;orthogonalLoop=1;jettySize=auto;html=1;exitX=0;exitY=0.5;exitDx=0;exitDy=0;entryX=0.5;entryY=0;entryDx=0;entryDy=0;" edge="1" parent="1" source="sHqzyULpG_yxHivqWB2C-16" target="sHqzyULpG_yxHivqWB2C-54">
          <mxGeometry relative="1" as="geometry" />
        </mxCell>
        <mxCell id="sHqzyULpG_yxHivqWB2C-7" style="edgeStyle=orthogonalEdgeStyle;rounded=0;orthogonalLoop=1;jettySize=auto;html=1;exitX=0.5;exitY=1;exitDx=0;exitDy=0;entryX=0.5;entryY=0;entryDx=0;entryDy=0;" edge="1" parent="1" source="sHqzyULpG_yxHivqWB2C-16" target="sHqzyULpG_yxHivqWB2C-63">
          <mxGeometry relative="1" as="geometry" />
        </mxCell>
        <mxCell id="sHqzyULpG_yxHivqWB2C-8" style="edgeStyle=orthogonalEdgeStyle;rounded=0;orthogonalLoop=1;jettySize=auto;html=1;exitX=1;exitY=0.5;exitDx=0;exitDy=0;entryX=0.5;entryY=0;entryDx=0;entryDy=0;" edge="1" parent="1" source="sHqzyULpG_yxHivqWB2C-16" target="sHqzyULpG_yxHivqWB2C-71">
          <mxGeometry relative="1" as="geometry" />
        </mxCell>
        <mxCell id="sHqzyULpG_yxHivqWB2C-9" style="edgeStyle=orthogonalEdgeStyle;rounded=0;orthogonalLoop=1;jettySize=auto;html=1;exitX=1;exitY=0.5;exitDx=0;exitDy=0;entryX=0.5;entryY=0;entryDx=0;entryDy=0;" edge="1" parent="1" source="sHqzyULpG_yxHivqWB2C-16" target="sHqzyULpG_yxHivqWB2C-80">
          <mxGeometry relative="1" as="geometry" />
        </mxCell>
        <mxCell id="sHqzyULpG_yxHivqWB2C-10" style="edgeStyle=orthogonalEdgeStyle;rounded=0;orthogonalLoop=1;jettySize=auto;html=1;exitX=1;exitY=0.5;exitDx=0;exitDy=0;" edge="1" parent="1" source="sHqzyULpG_yxHivqWB2C-16">
          <mxGeometry relative="1" as="geometry">
            <mxPoint x="535.1765854779414" y="-3468.5293758616726" as="targetPoint" />
          </mxGeometry>
        </mxCell>
        <mxCell id="sHqzyULpG_yxHivqWB2C-11" style="edgeStyle=orthogonalEdgeStyle;rounded=0;orthogonalLoop=1;jettySize=auto;html=1;exitX=1;exitY=0.5;exitDx=0;exitDy=0;entryX=0.5;entryY=0;entryDx=0;entryDy=0;" edge="1" parent="1" source="sHqzyULpG_yxHivqWB2C-16" target="sHqzyULpG_yxHivqWB2C-98">
          <mxGeometry relative="1" as="geometry" />
        </mxCell>
        <mxCell id="sHqzyULpG_yxHivqWB2C-12" style="edgeStyle=orthogonalEdgeStyle;rounded=0;orthogonalLoop=1;jettySize=auto;html=1;exitX=0;exitY=0.5;exitDx=0;exitDy=0;entryX=0.5;entryY=0;entryDx=0;entryDy=0;" edge="1" parent="1" source="sHqzyULpG_yxHivqWB2C-16" target="sHqzyULpG_yxHivqWB2C-25">
          <mxGeometry relative="1" as="geometry" />
        </mxCell>
        <mxCell id="sHqzyULpG_yxHivqWB2C-13" style="edgeStyle=orthogonalEdgeStyle;rounded=0;orthogonalLoop=1;jettySize=auto;html=1;exitX=0;exitY=0.25;exitDx=0;exitDy=0;entryX=0.5;entryY=0;entryDx=0;entryDy=0;" edge="1" parent="1" source="sHqzyULpG_yxHivqWB2C-16" target="sHqzyULpG_yxHivqWB2C-18">
          <mxGeometry relative="1" as="geometry" />
        </mxCell>
        <mxCell id="sHqzyULpG_yxHivqWB2C-14" style="edgeStyle=orthogonalEdgeStyle;rounded=0;orthogonalLoop=1;jettySize=auto;html=1;exitX=1;exitY=0.5;exitDx=0;exitDy=0;entryX=0.5;entryY=0;entryDx=0;entryDy=0;" edge="1" parent="1" source="sHqzyULpG_yxHivqWB2C-16" target="sHqzyULpG_yxHivqWB2C-107">
          <mxGeometry relative="1" as="geometry" />
        </mxCell>
        <mxCell id="sHqzyULpG_yxHivqWB2C-15" style="edgeStyle=orthogonalEdgeStyle;rounded=0;orthogonalLoop=1;jettySize=auto;html=1;exitX=1;exitY=0.5;exitDx=0;exitDy=0;entryX=0.5;entryY=0;entryDx=0;entryDy=0;" edge="1" parent="1" source="sHqzyULpG_yxHivqWB2C-16" target="sHqzyULpG_yxHivqWB2C-116">
          <mxGeometry relative="1" as="geometry" />
        </mxCell>
        <mxCell id="sHqzyULpG_yxHivqWB2C-16" value="Ingresar el año de nacimiento (año)" style="shape=parallelogram;perimeter=parallelogramPerimeter;whiteSpace=wrap;html=1;fixedSize=1;" vertex="1" parent="1">
          <mxGeometry x="-452.25" y="-3541" width="137.5" height="68" as="geometry" />
        </mxCell>
        <mxCell id="sHqzyULpG_yxHivqWB2C-17" style="edgeStyle=orthogonalEdgeStyle;rounded=0;orthogonalLoop=1;jettySize=auto;html=1;exitX=0.5;exitY=1;exitDx=0;exitDy=0;entryX=0.5;entryY=0;entryDx=0;entryDy=0;" edge="1" parent="1" source="sHqzyULpG_yxHivqWB2C-18" target="sHqzyULpG_yxHivqWB2C-21">
          <mxGeometry relative="1" as="geometry" />
        </mxCell>
        <mxCell id="sHqzyULpG_yxHivqWB2C-18" value="mes==1" style="rhombus;whiteSpace=wrap;html=1;" vertex="1" parent="1">
          <mxGeometry x="-1894.25" y="-3463.25" width="101.5" height="71" as="geometry" />
        </mxCell>
        <mxCell id="sHqzyULpG_yxHivqWB2C-19" style="edgeStyle=orthogonalEdgeStyle;rounded=0;orthogonalLoop=1;jettySize=auto;html=1;exitX=0;exitY=0.5;exitDx=0;exitDy=0;entryX=0.5;entryY=0;entryDx=0;entryDy=0;" edge="1" parent="1" source="sHqzyULpG_yxHivqWB2C-21" target="sHqzyULpG_yxHivqWB2C-23">
          <mxGeometry relative="1" as="geometry" />
        </mxCell>
        <mxCell id="sHqzyULpG_yxHivqWB2C-20" style="edgeStyle=orthogonalEdgeStyle;rounded=0;orthogonalLoop=1;jettySize=auto;html=1;exitX=1;exitY=0.5;exitDx=0;exitDy=0;entryX=0.5;entryY=0;entryDx=0;entryDy=0;" edge="1" parent="1" source="sHqzyULpG_yxHivqWB2C-21" target="sHqzyULpG_yxHivqWB2C-27">
          <mxGeometry relative="1" as="geometry" />
        </mxCell>
        <mxCell id="sHqzyULpG_yxHivqWB2C-21" value="día &amp;gt;= 20" style="rhombus;whiteSpace=wrap;html=1;" vertex="1" parent="1">
          <mxGeometry x="-1879" y="-3380.25" width="71" height="61.5" as="geometry" />
        </mxCell>
        <mxCell id="sHqzyULpG_yxHivqWB2C-22" style="edgeStyle=orthogonalEdgeStyle;rounded=0;orthogonalLoop=1;jettySize=auto;html=1;exitX=0;exitY=0.75;exitDx=0;exitDy=0;entryX=0;entryY=0.5;entryDx=0;entryDy=0;" edge="1" parent="1" source="sHqzyULpG_yxHivqWB2C-23" target="sHqzyULpG_yxHivqWB2C-124">
          <mxGeometry relative="1" as="geometry" />
        </mxCell>
        <mxCell id="sHqzyULpG_yxHivqWB2C-23" value="Su signo es Acurio" style="shape=document;whiteSpace=wrap;html=1;boundedLbl=1;" vertex="1" parent="1">
          <mxGeometry x="-1969" y="-3299.25" width="90" height="45" as="geometry" />
        </mxCell>
        <mxCell id="sHqzyULpG_yxHivqWB2C-24" style="edgeStyle=orthogonalEdgeStyle;rounded=0;orthogonalLoop=1;jettySize=auto;html=1;exitX=0.5;exitY=1;exitDx=0;exitDy=0;entryX=0.5;entryY=0;entryDx=0;entryDy=0;" edge="1" parent="1" source="sHqzyULpG_yxHivqWB2C-25" target="sHqzyULpG_yxHivqWB2C-32">
          <mxGeometry relative="1" as="geometry" />
        </mxCell>
        <mxCell id="sHqzyULpG_yxHivqWB2C-25" value="mes==2" style="rhombus;whiteSpace=wrap;html=1;" vertex="1" parent="1">
          <mxGeometry x="-1619.12" y="-3467.5" width="103.25" height="77" as="geometry" />
        </mxCell>
        <mxCell id="sHqzyULpG_yxHivqWB2C-26" style="edgeStyle=orthogonalEdgeStyle;rounded=0;orthogonalLoop=1;jettySize=auto;html=1;exitX=0;exitY=0.75;exitDx=0;exitDy=0;entryX=0;entryY=0.5;entryDx=0;entryDy=0;" edge="1" parent="1" source="sHqzyULpG_yxHivqWB2C-27" target="sHqzyULpG_yxHivqWB2C-124">
          <mxGeometry relative="1" as="geometry" />
        </mxCell>
        <mxCell id="sHqzyULpG_yxHivqWB2C-27" value="Su signo es Capricornio" style="shape=document;whiteSpace=wrap;html=1;boundedLbl=1;" vertex="1" parent="1">
          <mxGeometry x="-1808" y="-3299.25" width="94" height="45" as="geometry" />
        </mxCell>
        <mxCell id="sHqzyULpG_yxHivqWB2C-28" style="edgeStyle=orthogonalEdgeStyle;rounded=0;orthogonalLoop=1;jettySize=auto;html=1;exitX=0;exitY=0.75;exitDx=0;exitDy=0;entryX=0;entryY=0.5;entryDx=0;entryDy=0;" edge="1" parent="1" source="sHqzyULpG_yxHivqWB2C-29" target="sHqzyULpG_yxHivqWB2C-124">
          <mxGeometry relative="1" as="geometry" />
        </mxCell>
        <mxCell id="sHqzyULpG_yxHivqWB2C-29" value="Su signo es Piscis" style="shape=document;whiteSpace=wrap;html=1;boundedLbl=1;" vertex="1" parent="1">
          <mxGeometry x="-1697" y="-3300.5" width="94" height="45" as="geometry" />
        </mxCell>
        <mxCell id="sHqzyULpG_yxHivqWB2C-30" style="edgeStyle=orthogonalEdgeStyle;rounded=0;orthogonalLoop=1;jettySize=auto;html=1;exitX=0;exitY=0.5;exitDx=0;exitDy=0;entryX=0.5;entryY=0;entryDx=0;entryDy=0;" edge="1" parent="1" source="sHqzyULpG_yxHivqWB2C-32" target="sHqzyULpG_yxHivqWB2C-29">
          <mxGeometry relative="1" as="geometry" />
        </mxCell>
        <mxCell id="sHqzyULpG_yxHivqWB2C-31" style="edgeStyle=orthogonalEdgeStyle;rounded=0;orthogonalLoop=1;jettySize=auto;html=1;exitX=1;exitY=0.5;exitDx=0;exitDy=0;entryX=0.5;entryY=0;entryDx=0;entryDy=0;" edge="1" parent="1" source="sHqzyULpG_yxHivqWB2C-32" target="sHqzyULpG_yxHivqWB2C-34">
          <mxGeometry relative="1" as="geometry" />
        </mxCell>
        <mxCell id="sHqzyULpG_yxHivqWB2C-32" value="día &amp;gt;= 19" style="rhombus;whiteSpace=wrap;html=1;" vertex="1" parent="1">
          <mxGeometry x="-1603" y="-3381.5" width="71" height="61.5" as="geometry" />
        </mxCell>
        <mxCell id="sHqzyULpG_yxHivqWB2C-33" style="edgeStyle=orthogonalEdgeStyle;rounded=0;orthogonalLoop=1;jettySize=auto;html=1;exitX=0;exitY=0.75;exitDx=0;exitDy=0;entryX=0;entryY=0.5;entryDx=0;entryDy=0;" edge="1" parent="1" source="sHqzyULpG_yxHivqWB2C-34" target="sHqzyULpG_yxHivqWB2C-124">
          <mxGeometry relative="1" as="geometry" />
        </mxCell>
        <mxCell id="sHqzyULpG_yxHivqWB2C-34" value="Su signo es Acurio" style="shape=document;whiteSpace=wrap;html=1;boundedLbl=1;" vertex="1" parent="1">
          <mxGeometry x="-1532" y="-3300.5" width="94" height="45" as="geometry" />
        </mxCell>
        <mxCell id="sHqzyULpG_yxHivqWB2C-35" style="edgeStyle=orthogonalEdgeStyle;rounded=0;orthogonalLoop=1;jettySize=auto;html=1;exitX=0.5;exitY=1;exitDx=0;exitDy=0;entryX=0.5;entryY=0;entryDx=0;entryDy=0;" edge="1" parent="1" source="sHqzyULpG_yxHivqWB2C-36" target="sHqzyULpG_yxHivqWB2C-39">
          <mxGeometry relative="1" as="geometry" />
        </mxCell>
        <mxCell id="sHqzyULpG_yxHivqWB2C-36" value="mes==3" style="rhombus;whiteSpace=wrap;html=1;" vertex="1" parent="1">
          <mxGeometry x="-1324" y="-3467.5" width="103.25" height="77" as="geometry" />
        </mxCell>
        <mxCell id="sHqzyULpG_yxHivqWB2C-37" style="edgeStyle=orthogonalEdgeStyle;rounded=0;orthogonalLoop=1;jettySize=auto;html=1;exitX=0;exitY=0.5;exitDx=0;exitDy=0;entryX=0.5;entryY=0;entryDx=0;entryDy=0;" edge="1" parent="1" source="sHqzyULpG_yxHivqWB2C-39" target="sHqzyULpG_yxHivqWB2C-41">
          <mxGeometry relative="1" as="geometry" />
        </mxCell>
        <mxCell id="sHqzyULpG_yxHivqWB2C-38" style="edgeStyle=orthogonalEdgeStyle;rounded=0;orthogonalLoop=1;jettySize=auto;html=1;exitX=1;exitY=0.5;exitDx=0;exitDy=0;entryX=0.5;entryY=0;entryDx=0;entryDy=0;" edge="1" parent="1" source="sHqzyULpG_yxHivqWB2C-39" target="sHqzyULpG_yxHivqWB2C-43">
          <mxGeometry relative="1" as="geometry" />
        </mxCell>
        <mxCell id="sHqzyULpG_yxHivqWB2C-39" value="día &amp;gt;= 21" style="rhombus;whiteSpace=wrap;html=1;" vertex="1" parent="1">
          <mxGeometry x="-1307.88" y="-3380.25" width="71" height="61.5" as="geometry" />
        </mxCell>
        <mxCell id="sHqzyULpG_yxHivqWB2C-40" style="edgeStyle=orthogonalEdgeStyle;rounded=0;orthogonalLoop=1;jettySize=auto;html=1;exitX=0;exitY=0.75;exitDx=0;exitDy=0;entryX=0;entryY=0.5;entryDx=0;entryDy=0;" edge="1" parent="1" source="sHqzyULpG_yxHivqWB2C-41" target="sHqzyULpG_yxHivqWB2C-124">
          <mxGeometry relative="1" as="geometry" />
        </mxCell>
        <mxCell id="sHqzyULpG_yxHivqWB2C-41" value="Su signo es Aries" style="shape=document;whiteSpace=wrap;html=1;boundedLbl=1;" vertex="1" parent="1">
          <mxGeometry x="-1401.88" y="-3304.25" width="94" height="45" as="geometry" />
        </mxCell>
        <mxCell id="sHqzyULpG_yxHivqWB2C-42" style="edgeStyle=orthogonalEdgeStyle;rounded=0;orthogonalLoop=1;jettySize=auto;html=1;exitX=0;exitY=0.75;exitDx=0;exitDy=0;entryX=0;entryY=0.5;entryDx=0;entryDy=0;" edge="1" parent="1" source="sHqzyULpG_yxHivqWB2C-43" target="sHqzyULpG_yxHivqWB2C-124">
          <mxGeometry relative="1" as="geometry" />
        </mxCell>
        <mxCell id="sHqzyULpG_yxHivqWB2C-43" value="Su signo es Piscis" style="shape=document;whiteSpace=wrap;html=1;boundedLbl=1;" vertex="1" parent="1">
          <mxGeometry x="-1236.88" y="-3304.25" width="94" height="45" as="geometry" />
        </mxCell>
        <mxCell id="sHqzyULpG_yxHivqWB2C-44" style="edgeStyle=orthogonalEdgeStyle;rounded=0;orthogonalLoop=1;jettySize=auto;html=1;exitX=0.5;exitY=1;exitDx=0;exitDy=0;entryX=0.5;entryY=0;entryDx=0;entryDy=0;" edge="1" parent="1" source="sHqzyULpG_yxHivqWB2C-45" target="sHqzyULpG_yxHivqWB2C-48">
          <mxGeometry relative="1" as="geometry" />
        </mxCell>
        <mxCell id="sHqzyULpG_yxHivqWB2C-45" value="mes==4" style="rhombus;whiteSpace=wrap;html=1;" vertex="1" parent="1">
          <mxGeometry x="-1020" y="-3466.25" width="103.25" height="77" as="geometry" />
        </mxCell>
        <mxCell id="sHqzyULpG_yxHivqWB2C-46" style="edgeStyle=orthogonalEdgeStyle;rounded=0;orthogonalLoop=1;jettySize=auto;html=1;exitX=0;exitY=0.5;exitDx=0;exitDy=0;entryX=0.5;entryY=0;entryDx=0;entryDy=0;" edge="1" parent="1" source="sHqzyULpG_yxHivqWB2C-48" target="sHqzyULpG_yxHivqWB2C-52">
          <mxGeometry relative="1" as="geometry" />
        </mxCell>
        <mxCell id="sHqzyULpG_yxHivqWB2C-47" style="edgeStyle=orthogonalEdgeStyle;rounded=0;orthogonalLoop=1;jettySize=auto;html=1;exitX=1;exitY=0.5;exitDx=0;exitDy=0;entryX=0.5;entryY=0;entryDx=0;entryDy=0;" edge="1" parent="1" source="sHqzyULpG_yxHivqWB2C-48" target="sHqzyULpG_yxHivqWB2C-50">
          <mxGeometry relative="1" as="geometry" />
        </mxCell>
        <mxCell id="sHqzyULpG_yxHivqWB2C-48" value="día &amp;gt;= 20" style="rhombus;whiteSpace=wrap;html=1;" vertex="1" parent="1">
          <mxGeometry x="-1003.8800000000001" y="-3380.25" width="71" height="61.5" as="geometry" />
        </mxCell>
        <mxCell id="sHqzyULpG_yxHivqWB2C-49" style="edgeStyle=orthogonalEdgeStyle;rounded=0;orthogonalLoop=1;jettySize=auto;html=1;exitX=0;exitY=0.75;exitDx=0;exitDy=0;entryX=0;entryY=0.5;entryDx=0;entryDy=0;" edge="1" parent="1" source="sHqzyULpG_yxHivqWB2C-50" target="sHqzyULpG_yxHivqWB2C-124">
          <mxGeometry relative="1" as="geometry" />
        </mxCell>
        <mxCell id="sHqzyULpG_yxHivqWB2C-50" value="Su signo es Aries" style="shape=document;whiteSpace=wrap;html=1;boundedLbl=1;" vertex="1" parent="1">
          <mxGeometry x="-932.88" y="-3304.25" width="94" height="45" as="geometry" />
        </mxCell>
        <mxCell id="sHqzyULpG_yxHivqWB2C-51" style="edgeStyle=orthogonalEdgeStyle;rounded=0;orthogonalLoop=1;jettySize=auto;html=1;exitX=0;exitY=0.75;exitDx=0;exitDy=0;entryX=0;entryY=0.5;entryDx=0;entryDy=0;" edge="1" parent="1" source="sHqzyULpG_yxHivqWB2C-52" target="sHqzyULpG_yxHivqWB2C-124">
          <mxGeometry relative="1" as="geometry" />
        </mxCell>
        <mxCell id="sHqzyULpG_yxHivqWB2C-52" value="Su signo es Tauro" style="shape=document;whiteSpace=wrap;html=1;boundedLbl=1;" vertex="1" parent="1">
          <mxGeometry x="-1097.88" y="-3304.25" width="94" height="45" as="geometry" />
        </mxCell>
        <mxCell id="sHqzyULpG_yxHivqWB2C-53" style="edgeStyle=orthogonalEdgeStyle;rounded=0;orthogonalLoop=1;jettySize=auto;html=1;exitX=0.5;exitY=1;exitDx=0;exitDy=0;entryX=0.5;entryY=0;entryDx=0;entryDy=0;" edge="1" parent="1" source="sHqzyULpG_yxHivqWB2C-54" target="sHqzyULpG_yxHivqWB2C-57">
          <mxGeometry relative="1" as="geometry" />
        </mxCell>
        <mxCell id="sHqzyULpG_yxHivqWB2C-54" value="mes==5" style="rhombus;whiteSpace=wrap;html=1;" vertex="1" parent="1">
          <mxGeometry x="-726.12" y="-3466.25" width="103.25" height="77" as="geometry" />
        </mxCell>
        <mxCell id="sHqzyULpG_yxHivqWB2C-55" style="edgeStyle=orthogonalEdgeStyle;rounded=0;orthogonalLoop=1;jettySize=auto;html=1;exitX=0;exitY=0.5;exitDx=0;exitDy=0;entryX=0.5;entryY=0;entryDx=0;entryDy=0;" edge="1" parent="1" source="sHqzyULpG_yxHivqWB2C-57" target="sHqzyULpG_yxHivqWB2C-59">
          <mxGeometry relative="1" as="geometry" />
        </mxCell>
        <mxCell id="sHqzyULpG_yxHivqWB2C-56" style="edgeStyle=orthogonalEdgeStyle;rounded=0;orthogonalLoop=1;jettySize=auto;html=1;exitX=1;exitY=0.5;exitDx=0;exitDy=0;entryX=0.5;entryY=0;entryDx=0;entryDy=0;" edge="1" parent="1" source="sHqzyULpG_yxHivqWB2C-57" target="sHqzyULpG_yxHivqWB2C-61">
          <mxGeometry relative="1" as="geometry" />
        </mxCell>
        <mxCell id="sHqzyULpG_yxHivqWB2C-57" value="día &amp;gt;= 21" style="rhombus;whiteSpace=wrap;html=1;" vertex="1" parent="1">
          <mxGeometry x="-710" y="-3380.25" width="71" height="61.5" as="geometry" />
        </mxCell>
        <mxCell id="sHqzyULpG_yxHivqWB2C-58" style="edgeStyle=orthogonalEdgeStyle;rounded=0;orthogonalLoop=1;jettySize=auto;html=1;exitX=0;exitY=0.75;exitDx=0;exitDy=0;entryX=0;entryY=0.5;entryDx=0;entryDy=0;" edge="1" parent="1" source="sHqzyULpG_yxHivqWB2C-59" target="sHqzyULpG_yxHivqWB2C-124">
          <mxGeometry relative="1" as="geometry" />
        </mxCell>
        <mxCell id="sHqzyULpG_yxHivqWB2C-59" value="Su signo es Géminis" style="shape=document;whiteSpace=wrap;html=1;boundedLbl=1;" vertex="1" parent="1">
          <mxGeometry x="-804" y="-3304.25" width="94" height="45" as="geometry" />
        </mxCell>
        <mxCell id="sHqzyULpG_yxHivqWB2C-60" style="edgeStyle=orthogonalEdgeStyle;rounded=0;orthogonalLoop=1;jettySize=auto;html=1;exitX=0;exitY=0.75;exitDx=0;exitDy=0;entryX=0;entryY=0.5;entryDx=0;entryDy=0;" edge="1" parent="1" source="sHqzyULpG_yxHivqWB2C-61" target="sHqzyULpG_yxHivqWB2C-124">
          <mxGeometry relative="1" as="geometry" />
        </mxCell>
        <mxCell id="sHqzyULpG_yxHivqWB2C-61" value="Su signo es Tauro" style="shape=document;whiteSpace=wrap;html=1;boundedLbl=1;" vertex="1" parent="1">
          <mxGeometry x="-639" y="-3304.25" width="94" height="45" as="geometry" />
        </mxCell>
        <mxCell id="sHqzyULpG_yxHivqWB2C-62" style="edgeStyle=orthogonalEdgeStyle;rounded=0;orthogonalLoop=1;jettySize=auto;html=1;exitX=0.5;exitY=1;exitDx=0;exitDy=0;entryX=0.5;entryY=0;entryDx=0;entryDy=0;" edge="1" parent="1" source="sHqzyULpG_yxHivqWB2C-63" target="sHqzyULpG_yxHivqWB2C-66">
          <mxGeometry relative="1" as="geometry" />
        </mxCell>
        <mxCell id="sHqzyULpG_yxHivqWB2C-63" value="mes==6" style="rhombus;whiteSpace=wrap;html=1;" vertex="1" parent="1">
          <mxGeometry x="-436.12" y="-3466.25" width="103.25" height="77" as="geometry" />
        </mxCell>
        <mxCell id="sHqzyULpG_yxHivqWB2C-64" style="edgeStyle=orthogonalEdgeStyle;rounded=0;orthogonalLoop=1;jettySize=auto;html=1;exitX=0;exitY=0.5;exitDx=0;exitDy=0;entryX=0.5;entryY=0;entryDx=0;entryDy=0;" edge="1" parent="1" source="sHqzyULpG_yxHivqWB2C-66" target="sHqzyULpG_yxHivqWB2C-67">
          <mxGeometry relative="1" as="geometry" />
        </mxCell>
        <mxCell id="sHqzyULpG_yxHivqWB2C-65" style="edgeStyle=orthogonalEdgeStyle;rounded=0;orthogonalLoop=1;jettySize=auto;html=1;exitX=1;exitY=0.5;exitDx=0;exitDy=0;entryX=0.5;entryY=0;entryDx=0;entryDy=0;" edge="1" parent="1" source="sHqzyULpG_yxHivqWB2C-66" target="sHqzyULpG_yxHivqWB2C-69">
          <mxGeometry relative="1" as="geometry" />
        </mxCell>
        <mxCell id="sHqzyULpG_yxHivqWB2C-66" value="día &amp;gt;= 21" style="rhombus;whiteSpace=wrap;html=1;" vertex="1" parent="1">
          <mxGeometry x="-420" y="-3381.5" width="71" height="61.5" as="geometry" />
        </mxCell>
        <mxCell id="sHqzyULpG_yxHivqWB2C-67" value="Su signo es Cancer" style="shape=document;whiteSpace=wrap;html=1;boundedLbl=1;" vertex="1" parent="1">
          <mxGeometry x="-514" y="-3304.25" width="94" height="45" as="geometry" />
        </mxCell>
        <mxCell id="sHqzyULpG_yxHivqWB2C-68" style="edgeStyle=orthogonalEdgeStyle;rounded=0;orthogonalLoop=1;jettySize=auto;html=1;exitX=0;exitY=0.75;exitDx=0;exitDy=0;entryX=0.5;entryY=0;entryDx=0;entryDy=0;" edge="1" parent="1" source="sHqzyULpG_yxHivqWB2C-69" target="sHqzyULpG_yxHivqWB2C-124">
          <mxGeometry relative="1" as="geometry" />
        </mxCell>
        <mxCell id="sHqzyULpG_yxHivqWB2C-69" value="Su signo es Géminis" style="shape=document;whiteSpace=wrap;html=1;boundedLbl=1;" vertex="1" parent="1">
          <mxGeometry x="-349" y="-3300.5" width="94" height="45" as="geometry" />
        </mxCell>
        <mxCell id="sHqzyULpG_yxHivqWB2C-70" style="edgeStyle=orthogonalEdgeStyle;rounded=0;orthogonalLoop=1;jettySize=auto;html=1;exitX=0.5;exitY=1;exitDx=0;exitDy=0;entryX=0.5;entryY=0;entryDx=0;entryDy=0;" edge="1" parent="1" source="sHqzyULpG_yxHivqWB2C-71" target="sHqzyULpG_yxHivqWB2C-74">
          <mxGeometry relative="1" as="geometry" />
        </mxCell>
        <mxCell id="sHqzyULpG_yxHivqWB2C-71" value="mes==7" style="rhombus;whiteSpace=wrap;html=1;" vertex="1" parent="1">
          <mxGeometry x="-103" y="-3466.25" width="103.25" height="77" as="geometry" />
        </mxCell>
        <mxCell id="sHqzyULpG_yxHivqWB2C-72" style="edgeStyle=orthogonalEdgeStyle;rounded=0;orthogonalLoop=1;jettySize=auto;html=1;exitX=0;exitY=0.5;exitDx=0;exitDy=0;entryX=0.5;entryY=0;entryDx=0;entryDy=0;" edge="1" parent="1" source="sHqzyULpG_yxHivqWB2C-74" target="sHqzyULpG_yxHivqWB2C-76">
          <mxGeometry relative="1" as="geometry" />
        </mxCell>
        <mxCell id="sHqzyULpG_yxHivqWB2C-73" style="edgeStyle=orthogonalEdgeStyle;rounded=0;orthogonalLoop=1;jettySize=auto;html=1;exitX=1;exitY=0.5;exitDx=0;exitDy=0;entryX=0.5;entryY=0;entryDx=0;entryDy=0;" edge="1" parent="1" source="sHqzyULpG_yxHivqWB2C-74" target="sHqzyULpG_yxHivqWB2C-78">
          <mxGeometry relative="1" as="geometry" />
        </mxCell>
        <mxCell id="sHqzyULpG_yxHivqWB2C-74" value="día &amp;gt;= 23" style="rhombus;whiteSpace=wrap;html=1;" vertex="1" parent="1">
          <mxGeometry x="-86.88" y="-3381.5" width="71" height="61.5" as="geometry" />
        </mxCell>
        <mxCell id="sHqzyULpG_yxHivqWB2C-75" style="edgeStyle=orthogonalEdgeStyle;rounded=0;orthogonalLoop=1;jettySize=auto;html=1;exitX=1;exitY=0.75;exitDx=0;exitDy=0;entryX=1;entryY=0.5;entryDx=0;entryDy=0;" edge="1" parent="1" source="sHqzyULpG_yxHivqWB2C-76" target="sHqzyULpG_yxHivqWB2C-124">
          <mxGeometry relative="1" as="geometry" />
        </mxCell>
        <mxCell id="sHqzyULpG_yxHivqWB2C-76" value="Su signo es Leo" style="shape=document;whiteSpace=wrap;html=1;boundedLbl=1;" vertex="1" parent="1">
          <mxGeometry x="-180.88" y="-3300.5" width="94" height="45" as="geometry" />
        </mxCell>
        <mxCell id="sHqzyULpG_yxHivqWB2C-77" style="edgeStyle=orthogonalEdgeStyle;rounded=0;orthogonalLoop=1;jettySize=auto;html=1;exitX=1;exitY=0.75;exitDx=0;exitDy=0;entryX=1;entryY=0.5;entryDx=0;entryDy=0;" edge="1" parent="1" source="sHqzyULpG_yxHivqWB2C-78" target="sHqzyULpG_yxHivqWB2C-124">
          <mxGeometry relative="1" as="geometry" />
        </mxCell>
        <mxCell id="sHqzyULpG_yxHivqWB2C-78" value="Su signo es Cancer" style="shape=document;whiteSpace=wrap;html=1;boundedLbl=1;" vertex="1" parent="1">
          <mxGeometry x="-15.879999999999995" y="-3300.5" width="94" height="45" as="geometry" />
        </mxCell>
        <mxCell id="sHqzyULpG_yxHivqWB2C-79" style="edgeStyle=orthogonalEdgeStyle;rounded=0;orthogonalLoop=1;jettySize=auto;html=1;exitX=0.5;exitY=1;exitDx=0;exitDy=0;entryX=0.5;entryY=0;entryDx=0;entryDy=0;" edge="1" parent="1" source="sHqzyULpG_yxHivqWB2C-80" target="sHqzyULpG_yxHivqWB2C-83">
          <mxGeometry relative="1" as="geometry" />
        </mxCell>
        <mxCell id="sHqzyULpG_yxHivqWB2C-80" value="mes==8" style="rhombus;whiteSpace=wrap;html=1;" vertex="1" parent="1">
          <mxGeometry x="184.06" y="-3465" width="103.25" height="77" as="geometry" />
        </mxCell>
        <mxCell id="sHqzyULpG_yxHivqWB2C-81" style="edgeStyle=orthogonalEdgeStyle;rounded=0;orthogonalLoop=1;jettySize=auto;html=1;exitX=0;exitY=0.5;exitDx=0;exitDy=0;entryX=0.5;entryY=0;entryDx=0;entryDy=0;" edge="1" parent="1" source="sHqzyULpG_yxHivqWB2C-83" target="sHqzyULpG_yxHivqWB2C-85">
          <mxGeometry relative="1" as="geometry" />
        </mxCell>
        <mxCell id="sHqzyULpG_yxHivqWB2C-82" style="edgeStyle=orthogonalEdgeStyle;rounded=0;orthogonalLoop=1;jettySize=auto;html=1;exitX=1;exitY=0.5;exitDx=0;exitDy=0;entryX=0.5;entryY=0;entryDx=0;entryDy=0;" edge="1" parent="1" source="sHqzyULpG_yxHivqWB2C-83" target="sHqzyULpG_yxHivqWB2C-87">
          <mxGeometry relative="1" as="geometry" />
        </mxCell>
        <mxCell id="sHqzyULpG_yxHivqWB2C-83" value="día &amp;gt;= 23" style="rhombus;whiteSpace=wrap;html=1;" vertex="1" parent="1">
          <mxGeometry x="200.19" y="-3380.25" width="71" height="61.5" as="geometry" />
        </mxCell>
        <mxCell id="sHqzyULpG_yxHivqWB2C-84" style="edgeStyle=orthogonalEdgeStyle;rounded=0;orthogonalLoop=1;jettySize=auto;html=1;exitX=1;exitY=0.75;exitDx=0;exitDy=0;entryX=1;entryY=0.5;entryDx=0;entryDy=0;" edge="1" parent="1" source="sHqzyULpG_yxHivqWB2C-85" target="sHqzyULpG_yxHivqWB2C-124">
          <mxGeometry relative="1" as="geometry" />
        </mxCell>
        <mxCell id="sHqzyULpG_yxHivqWB2C-85" value="Su signo es Virgo" style="shape=document;whiteSpace=wrap;html=1;boundedLbl=1;" vertex="1" parent="1">
          <mxGeometry x="106.19" y="-3299.25" width="94" height="45" as="geometry" />
        </mxCell>
        <mxCell id="sHqzyULpG_yxHivqWB2C-86" style="edgeStyle=orthogonalEdgeStyle;rounded=0;orthogonalLoop=1;jettySize=auto;html=1;exitX=1;exitY=0.75;exitDx=0;exitDy=0;entryX=1;entryY=0.5;entryDx=0;entryDy=0;" edge="1" parent="1" source="sHqzyULpG_yxHivqWB2C-87" target="sHqzyULpG_yxHivqWB2C-124">
          <mxGeometry relative="1" as="geometry" />
        </mxCell>
        <mxCell id="sHqzyULpG_yxHivqWB2C-87" value="Su signo es Leo" style="shape=document;whiteSpace=wrap;html=1;boundedLbl=1;" vertex="1" parent="1">
          <mxGeometry x="271.18999999999994" y="-3303" width="94" height="45" as="geometry" />
        </mxCell>
        <mxCell id="sHqzyULpG_yxHivqWB2C-88" style="edgeStyle=orthogonalEdgeStyle;rounded=0;orthogonalLoop=1;jettySize=auto;html=1;exitX=0.5;exitY=1;exitDx=0;exitDy=0;entryX=0.5;entryY=0;entryDx=0;entryDy=0;" edge="1" parent="1" source="sHqzyULpG_yxHivqWB2C-89" target="sHqzyULpG_yxHivqWB2C-92">
          <mxGeometry relative="1" as="geometry" />
        </mxCell>
        <mxCell id="sHqzyULpG_yxHivqWB2C-89" value="mes==9" style="rhombus;whiteSpace=wrap;html=1;" vertex="1" parent="1">
          <mxGeometry x="484.8699999999999" y="-3467.5" width="103.25" height="77" as="geometry" />
        </mxCell>
        <mxCell id="sHqzyULpG_yxHivqWB2C-90" style="edgeStyle=orthogonalEdgeStyle;rounded=0;orthogonalLoop=1;jettySize=auto;html=1;exitX=0;exitY=0.5;exitDx=0;exitDy=0;entryX=0.5;entryY=0;entryDx=0;entryDy=0;" edge="1" parent="1" source="sHqzyULpG_yxHivqWB2C-92" target="sHqzyULpG_yxHivqWB2C-94">
          <mxGeometry relative="1" as="geometry" />
        </mxCell>
        <mxCell id="sHqzyULpG_yxHivqWB2C-91" style="edgeStyle=orthogonalEdgeStyle;rounded=0;orthogonalLoop=1;jettySize=auto;html=1;exitX=1;exitY=0.5;exitDx=0;exitDy=0;entryX=0.5;entryY=0;entryDx=0;entryDy=0;" edge="1" parent="1" source="sHqzyULpG_yxHivqWB2C-92" target="sHqzyULpG_yxHivqWB2C-96">
          <mxGeometry relative="1" as="geometry" />
        </mxCell>
        <mxCell id="sHqzyULpG_yxHivqWB2C-92" value="día &amp;gt;= 23" style="rhombus;whiteSpace=wrap;html=1;" vertex="1" parent="1">
          <mxGeometry x="501" y="-3380.25" width="71" height="61.5" as="geometry" />
        </mxCell>
        <mxCell id="sHqzyULpG_yxHivqWB2C-93" style="edgeStyle=orthogonalEdgeStyle;rounded=0;orthogonalLoop=1;jettySize=auto;html=1;exitX=1;exitY=0.75;exitDx=0;exitDy=0;entryX=1;entryY=0.5;entryDx=0;entryDy=0;" edge="1" parent="1" source="sHqzyULpG_yxHivqWB2C-94" target="sHqzyULpG_yxHivqWB2C-124">
          <mxGeometry relative="1" as="geometry" />
        </mxCell>
        <mxCell id="sHqzyULpG_yxHivqWB2C-94" value="Su signo es Libra" style="shape=document;whiteSpace=wrap;html=1;boundedLbl=1;" vertex="1" parent="1">
          <mxGeometry x="407" y="-3304.25" width="94" height="45" as="geometry" />
        </mxCell>
        <mxCell id="sHqzyULpG_yxHivqWB2C-95" style="edgeStyle=orthogonalEdgeStyle;rounded=0;orthogonalLoop=1;jettySize=auto;html=1;exitX=1;exitY=0.75;exitDx=0;exitDy=0;entryX=1;entryY=0.5;entryDx=0;entryDy=0;" edge="1" parent="1" source="sHqzyULpG_yxHivqWB2C-96" target="sHqzyULpG_yxHivqWB2C-124">
          <mxGeometry relative="1" as="geometry" />
        </mxCell>
        <mxCell id="sHqzyULpG_yxHivqWB2C-96" value="Su signo es Virgo" style="shape=document;whiteSpace=wrap;html=1;boundedLbl=1;" vertex="1" parent="1">
          <mxGeometry x="572" y="-3304.25" width="94" height="45" as="geometry" />
        </mxCell>
        <mxCell id="sHqzyULpG_yxHivqWB2C-97" style="edgeStyle=orthogonalEdgeStyle;rounded=0;orthogonalLoop=1;jettySize=auto;html=1;exitX=0.5;exitY=1;exitDx=0;exitDy=0;entryX=0.5;entryY=0;entryDx=0;entryDy=0;" edge="1" parent="1" source="sHqzyULpG_yxHivqWB2C-98" target="sHqzyULpG_yxHivqWB2C-101">
          <mxGeometry relative="1" as="geometry" />
        </mxCell>
        <mxCell id="sHqzyULpG_yxHivqWB2C-98" value="mes==10" style="rhombus;whiteSpace=wrap;html=1;" vertex="1" parent="1">
          <mxGeometry x="791" y="-3466.25" width="103.25" height="77" as="geometry" />
        </mxCell>
        <mxCell id="sHqzyULpG_yxHivqWB2C-99" style="edgeStyle=orthogonalEdgeStyle;rounded=0;orthogonalLoop=1;jettySize=auto;html=1;exitX=0;exitY=0.5;exitDx=0;exitDy=0;entryX=0.5;entryY=0;entryDx=0;entryDy=0;" edge="1" parent="1" source="sHqzyULpG_yxHivqWB2C-101" target="sHqzyULpG_yxHivqWB2C-103">
          <mxGeometry relative="1" as="geometry" />
        </mxCell>
        <mxCell id="sHqzyULpG_yxHivqWB2C-100" style="edgeStyle=orthogonalEdgeStyle;rounded=0;orthogonalLoop=1;jettySize=auto;html=1;exitX=1;exitY=0.5;exitDx=0;exitDy=0;entryX=0.5;entryY=0;entryDx=0;entryDy=0;" edge="1" parent="1" source="sHqzyULpG_yxHivqWB2C-101" target="sHqzyULpG_yxHivqWB2C-105">
          <mxGeometry relative="1" as="geometry" />
        </mxCell>
        <mxCell id="sHqzyULpG_yxHivqWB2C-101" value="día &amp;gt;= 23" style="rhombus;whiteSpace=wrap;html=1;" vertex="1" parent="1">
          <mxGeometry x="807" y="-3382.63" width="71" height="61.5" as="geometry" />
        </mxCell>
        <mxCell id="sHqzyULpG_yxHivqWB2C-102" style="edgeStyle=orthogonalEdgeStyle;rounded=0;orthogonalLoop=1;jettySize=auto;html=1;exitX=1;exitY=0.75;exitDx=0;exitDy=0;entryX=1;entryY=0.5;entryDx=0;entryDy=0;" edge="1" parent="1" source="sHqzyULpG_yxHivqWB2C-103" target="sHqzyULpG_yxHivqWB2C-124">
          <mxGeometry relative="1" as="geometry" />
        </mxCell>
        <mxCell id="sHqzyULpG_yxHivqWB2C-103" value="Su signo es Escorpio" style="shape=document;whiteSpace=wrap;html=1;boundedLbl=1;" vertex="1" parent="1">
          <mxGeometry x="713" y="-3304.25" width="94" height="45" as="geometry" />
        </mxCell>
        <mxCell id="sHqzyULpG_yxHivqWB2C-104" style="edgeStyle=orthogonalEdgeStyle;rounded=0;orthogonalLoop=1;jettySize=auto;html=1;exitX=1;exitY=0.75;exitDx=0;exitDy=0;entryX=1;entryY=0.5;entryDx=0;entryDy=0;" edge="1" parent="1" source="sHqzyULpG_yxHivqWB2C-105" target="sHqzyULpG_yxHivqWB2C-124">
          <mxGeometry relative="1" as="geometry" />
        </mxCell>
        <mxCell id="sHqzyULpG_yxHivqWB2C-105" value="Su signo es Libra" style="shape=document;whiteSpace=wrap;html=1;boundedLbl=1;" vertex="1" parent="1">
          <mxGeometry x="878" y="-3304.25" width="94" height="45" as="geometry" />
        </mxCell>
        <mxCell id="sHqzyULpG_yxHivqWB2C-106" style="edgeStyle=orthogonalEdgeStyle;rounded=0;orthogonalLoop=1;jettySize=auto;html=1;exitX=0.5;exitY=1;exitDx=0;exitDy=0;entryX=0.5;entryY=0;entryDx=0;entryDy=0;" edge="1" parent="1" source="sHqzyULpG_yxHivqWB2C-107" target="sHqzyULpG_yxHivqWB2C-110">
          <mxGeometry relative="1" as="geometry" />
        </mxCell>
        <mxCell id="sHqzyULpG_yxHivqWB2C-107" value="mes==11" style="rhombus;whiteSpace=wrap;html=1;" vertex="1" parent="1">
          <mxGeometry x="1089.87" y="-3470" width="103.25" height="77" as="geometry" />
        </mxCell>
        <mxCell id="sHqzyULpG_yxHivqWB2C-108" style="edgeStyle=orthogonalEdgeStyle;rounded=0;orthogonalLoop=1;jettySize=auto;html=1;exitX=0;exitY=0.5;exitDx=0;exitDy=0;entryX=0.5;entryY=0;entryDx=0;entryDy=0;" edge="1" parent="1" source="sHqzyULpG_yxHivqWB2C-110" target="sHqzyULpG_yxHivqWB2C-112">
          <mxGeometry relative="1" as="geometry" />
        </mxCell>
        <mxCell id="sHqzyULpG_yxHivqWB2C-109" style="edgeStyle=orthogonalEdgeStyle;rounded=0;orthogonalLoop=1;jettySize=auto;html=1;exitX=1;exitY=0.5;exitDx=0;exitDy=0;entryX=0.5;entryY=0;entryDx=0;entryDy=0;" edge="1" parent="1" source="sHqzyULpG_yxHivqWB2C-110" target="sHqzyULpG_yxHivqWB2C-114">
          <mxGeometry relative="1" as="geometry" />
        </mxCell>
        <mxCell id="sHqzyULpG_yxHivqWB2C-110" value="día &amp;gt;= 22" style="rhombus;whiteSpace=wrap;html=1;" vertex="1" parent="1">
          <mxGeometry x="1106" y="-3385.25" width="71" height="61.5" as="geometry" />
        </mxCell>
        <mxCell id="sHqzyULpG_yxHivqWB2C-111" style="edgeStyle=orthogonalEdgeStyle;rounded=0;orthogonalLoop=1;jettySize=auto;html=1;exitX=1;exitY=0.75;exitDx=0;exitDy=0;entryX=1;entryY=0.5;entryDx=0;entryDy=0;" edge="1" parent="1" source="sHqzyULpG_yxHivqWB2C-112" target="sHqzyULpG_yxHivqWB2C-124">
          <mxGeometry relative="1" as="geometry" />
        </mxCell>
        <mxCell id="sHqzyULpG_yxHivqWB2C-112" value="Su signo es Sagitario" style="shape=document;whiteSpace=wrap;html=1;boundedLbl=1;" vertex="1" parent="1">
          <mxGeometry x="1012" y="-3304.25" width="94" height="45" as="geometry" />
        </mxCell>
        <mxCell id="sHqzyULpG_yxHivqWB2C-113" style="edgeStyle=orthogonalEdgeStyle;rounded=0;orthogonalLoop=1;jettySize=auto;html=1;exitX=1;exitY=0.75;exitDx=0;exitDy=0;entryX=1;entryY=0.5;entryDx=0;entryDy=0;" edge="1" parent="1" source="sHqzyULpG_yxHivqWB2C-114" target="sHqzyULpG_yxHivqWB2C-124">
          <mxGeometry relative="1" as="geometry" />
        </mxCell>
        <mxCell id="sHqzyULpG_yxHivqWB2C-114" value="Su signo es Escorpio" style="shape=document;whiteSpace=wrap;html=1;boundedLbl=1;" vertex="1" parent="1">
          <mxGeometry x="1177" y="-3305.5" width="94" height="45" as="geometry" />
        </mxCell>
        <mxCell id="sHqzyULpG_yxHivqWB2C-115" style="edgeStyle=orthogonalEdgeStyle;rounded=0;orthogonalLoop=1;jettySize=auto;html=1;exitX=0.5;exitY=1;exitDx=0;exitDy=0;entryX=0.5;entryY=0;entryDx=0;entryDy=0;" edge="1" parent="1" source="sHqzyULpG_yxHivqWB2C-116" target="sHqzyULpG_yxHivqWB2C-118">
          <mxGeometry relative="1" as="geometry" />
        </mxCell>
        <mxCell id="sHqzyULpG_yxHivqWB2C-116" value="mes==12" style="rhombus;whiteSpace=wrap;html=1;" vertex="1" parent="1">
          <mxGeometry x="1384.87" y="-3466.25" width="103.25" height="77" as="geometry" />
        </mxCell>
        <mxCell id="sHqzyULpG_yxHivqWB2C-117" style="edgeStyle=orthogonalEdgeStyle;rounded=0;orthogonalLoop=1;jettySize=auto;html=1;exitX=1;exitY=0.5;exitDx=0;exitDy=0;entryX=0.5;entryY=0;entryDx=0;entryDy=0;" edge="1" parent="1" source="sHqzyULpG_yxHivqWB2C-118" target="sHqzyULpG_yxHivqWB2C-122">
          <mxGeometry relative="1" as="geometry" />
        </mxCell>
        <mxCell id="sHqzyULpG_yxHivqWB2C-118" value="día &amp;gt;= 22" style="rhombus;whiteSpace=wrap;html=1;" vertex="1" parent="1">
          <mxGeometry x="1401.0000000000002" y="-3376.38" width="71" height="61.5" as="geometry" />
        </mxCell>
        <mxCell id="sHqzyULpG_yxHivqWB2C-119" style="edgeStyle=orthogonalEdgeStyle;rounded=0;orthogonalLoop=1;jettySize=auto;html=1;exitX=1;exitY=0.75;exitDx=0;exitDy=0;entryX=1;entryY=0.5;entryDx=0;entryDy=0;" edge="1" parent="1" source="sHqzyULpG_yxHivqWB2C-120" target="sHqzyULpG_yxHivqWB2C-124">
          <mxGeometry relative="1" as="geometry" />
        </mxCell>
        <mxCell id="sHqzyULpG_yxHivqWB2C-120" value="Su signo es Capricornio" style="shape=document;whiteSpace=wrap;html=1;boundedLbl=1;" vertex="1" parent="1">
          <mxGeometry x="1307" y="-3304.25" width="94" height="45" as="geometry" />
        </mxCell>
        <mxCell id="sHqzyULpG_yxHivqWB2C-121" style="edgeStyle=orthogonalEdgeStyle;rounded=0;orthogonalLoop=1;jettySize=auto;html=1;exitX=1;exitY=0.75;exitDx=0;exitDy=0;entryX=1;entryY=0.5;entryDx=0;entryDy=0;" edge="1" parent="1" source="sHqzyULpG_yxHivqWB2C-122" target="sHqzyULpG_yxHivqWB2C-124">
          <mxGeometry relative="1" as="geometry" />
        </mxCell>
        <mxCell id="sHqzyULpG_yxHivqWB2C-122" value="Su signo es Sagitario" style="shape=document;whiteSpace=wrap;html=1;boundedLbl=1;" vertex="1" parent="1">
          <mxGeometry x="1472" y="-3307.38" width="94" height="45" as="geometry" />
        </mxCell>
        <mxCell id="sHqzyULpG_yxHivqWB2C-123" style="edgeStyle=orthogonalEdgeStyle;rounded=0;orthogonalLoop=1;jettySize=auto;html=1;exitX=0;exitY=0.5;exitDx=0;exitDy=0;entryX=0.415;entryY=0.04;entryDx=0;entryDy=0;entryPerimeter=0;" edge="1" parent="1" source="sHqzyULpG_yxHivqWB2C-118" target="sHqzyULpG_yxHivqWB2C-120">
          <mxGeometry relative="1" as="geometry" />
        </mxCell>
        <mxCell id="sHqzyULpG_yxHivqWB2C-124" value="FIN" style="ellipse;whiteSpace=wrap;html=1;" vertex="1" parent="1">
          <mxGeometry x="-415" y="-3195" width="61" height="38" as="geometry" />
        </mxCell>
        <mxCell id="sHqzyULpG_yxHivqWB2C-125" value="SI" style="text;html=1;align=center;verticalAlign=middle;whiteSpace=wrap;rounded=0;" vertex="1" parent="1">
          <mxGeometry x="-1930" y="-3376.38" width="60" height="30" as="geometry" />
        </mxCell>
        <mxCell id="sHqzyULpG_yxHivqWB2C-126" value="NO" style="text;html=1;align=center;verticalAlign=middle;whiteSpace=wrap;rounded=0;" vertex="1" parent="1">
          <mxGeometry x="-1820" y="-3381.5" width="60" height="30" as="geometry" />
        </mxCell>
        <mxCell id="sHqzyULpG_yxHivqWB2C-127" value="SI" style="text;html=1;align=center;verticalAlign=middle;whiteSpace=wrap;rounded=0;" vertex="1" parent="1">
          <mxGeometry x="-1654" y="-3382.63" width="60" height="30" as="geometry" />
        </mxCell>
        <mxCell id="sHqzyULpG_yxHivqWB2C-128" value="SI" style="text;html=1;align=center;verticalAlign=middle;whiteSpace=wrap;rounded=0;" vertex="1" parent="1">
          <mxGeometry x="-1357" y="-3380.25" width="60" height="30" as="geometry" />
        </mxCell>
        <mxCell id="sHqzyULpG_yxHivqWB2C-129" value="NO" style="text;html=1;align=center;verticalAlign=middle;whiteSpace=wrap;rounded=0;" vertex="1" parent="1">
          <mxGeometry x="-1540" y="-3382.63" width="60" height="30" as="geometry" />
        </mxCell>
        <mxCell id="sHqzyULpG_yxHivqWB2C-130" value="NO" style="text;html=1;align=center;verticalAlign=middle;whiteSpace=wrap;rounded=0;" vertex="1" parent="1">
          <mxGeometry x="-1244" y="-3380.25" width="60" height="30" as="geometry" />
        </mxCell>
        <mxCell id="sHqzyULpG_yxHivqWB2C-131" value="SI" style="text;html=1;align=center;verticalAlign=middle;whiteSpace=wrap;rounded=0;" vertex="1" parent="1">
          <mxGeometry x="-1052" y="-3376.38" width="60" height="30" as="geometry" />
        </mxCell>
        <mxCell id="sHqzyULpG_yxHivqWB2C-132" value="NO" style="text;html=1;align=center;verticalAlign=middle;whiteSpace=wrap;rounded=0;" vertex="1" parent="1">
          <mxGeometry x="-945" y="-3380.25" width="60" height="30" as="geometry" />
        </mxCell>
        <mxCell id="sHqzyULpG_yxHivqWB2C-133" value="SI" style="text;html=1;align=center;verticalAlign=middle;whiteSpace=wrap;rounded=0;" vertex="1" parent="1">
          <mxGeometry x="-755" y="-3376.38" width="60" height="30" as="geometry" />
        </mxCell>
        <mxCell id="sHqzyULpG_yxHivqWB2C-134" value="NO" style="text;html=1;align=center;verticalAlign=middle;whiteSpace=wrap;rounded=0;" vertex="1" parent="1">
          <mxGeometry x="-649" y="-3380.25" width="60" height="30" as="geometry" />
        </mxCell>
        <mxCell id="sHqzyULpG_yxHivqWB2C-135" value="SI" style="text;html=1;align=center;verticalAlign=middle;whiteSpace=wrap;rounded=0;" vertex="1" parent="1">
          <mxGeometry x="-465.5" y="-3380.25" width="60" height="30" as="geometry" />
        </mxCell>
        <mxCell id="sHqzyULpG_yxHivqWB2C-136" value="NO" style="text;html=1;align=center;verticalAlign=middle;whiteSpace=wrap;rounded=0;" vertex="1" parent="1">
          <mxGeometry x="-358" y="-3381.5" width="60" height="30" as="geometry" />
        </mxCell>
        <mxCell id="sHqzyULpG_yxHivqWB2C-137" value="SI" style="text;html=1;align=center;verticalAlign=middle;whiteSpace=wrap;rounded=0;" vertex="1" parent="1">
          <mxGeometry x="-136" y="-3376.38" width="60" height="30" as="geometry" />
        </mxCell>
        <mxCell id="sHqzyULpG_yxHivqWB2C-138" value="NO" style="text;html=1;align=center;verticalAlign=middle;whiteSpace=wrap;rounded=0;" vertex="1" parent="1">
          <mxGeometry x="-17" y="-3381.5" width="60" height="30" as="geometry" />
        </mxCell>
        <mxCell id="sHqzyULpG_yxHivqWB2C-139" value="SI" style="text;html=1;align=center;verticalAlign=middle;whiteSpace=wrap;rounded=0;" vertex="1" parent="1">
          <mxGeometry x="153" y="-3373" width="60" height="30" as="geometry" />
        </mxCell>
        <mxCell id="sHqzyULpG_yxHivqWB2C-140" value="NO" style="text;html=1;align=center;verticalAlign=middle;whiteSpace=wrap;rounded=0;" vertex="1" parent="1">
          <mxGeometry x="264" y="-3376.38" width="60" height="30" as="geometry" />
        </mxCell>
        <mxCell id="sHqzyULpG_yxHivqWB2C-141" value="SI" style="text;html=1;align=center;verticalAlign=middle;whiteSpace=wrap;rounded=0;" vertex="1" parent="1">
          <mxGeometry x="451" y="-3376.38" width="60" height="30" as="geometry" />
        </mxCell>
        <mxCell id="sHqzyULpG_yxHivqWB2C-142" value="NO" style="text;html=1;align=center;verticalAlign=middle;whiteSpace=wrap;rounded=0;" vertex="1" parent="1">
          <mxGeometry x="562" y="-3373" width="60" height="30" as="geometry" />
        </mxCell>
        <mxCell id="sHqzyULpG_yxHivqWB2C-143" value="SI" style="text;html=1;align=center;verticalAlign=middle;whiteSpace=wrap;rounded=0;" vertex="1" parent="1">
          <mxGeometry x="756" y="-3380.25" width="60" height="30" as="geometry" />
        </mxCell>
        <mxCell id="sHqzyULpG_yxHivqWB2C-144" value="NO" style="text;html=1;align=center;verticalAlign=middle;whiteSpace=wrap;rounded=0;" vertex="1" parent="1">
          <mxGeometry x="867" y="-3382.63" width="60" height="30" as="geometry" />
        </mxCell>
        <mxCell id="sHqzyULpG_yxHivqWB2C-145" value="SI" style="text;html=1;align=center;verticalAlign=middle;whiteSpace=wrap;rounded=0;" vertex="1" parent="1">
          <mxGeometry x="1058" y="-3385.25" width="60" height="30" as="geometry" />
        </mxCell>
        <mxCell id="sHqzyULpG_yxHivqWB2C-146" value="SI" style="text;html=1;align=center;verticalAlign=middle;whiteSpace=wrap;rounded=0;" vertex="1" parent="1">
          <mxGeometry x="1349" y="-3373" width="60" height="30" as="geometry" />
        </mxCell>
        <mxCell id="sHqzyULpG_yxHivqWB2C-147" value="NO" style="text;html=1;align=center;verticalAlign=middle;whiteSpace=wrap;rounded=0;" vertex="1" parent="1">
          <mxGeometry x="1166" y="-3381.5" width="60" height="30" as="geometry" />
        </mxCell>
        <mxCell id="sHqzyULpG_yxHivqWB2C-148" value="NO" style="text;html=1;align=center;verticalAlign=middle;whiteSpace=wrap;rounded=0;" vertex="1" parent="1">
          <mxGeometry x="1465" y="-3369.5" width="60" height="30" as="geometry" />
        </mxCell>
      </root>
    </mxGraphModel>
  </diagram>
</mxfile>
